<svg width="109" height="62" viewBox="0 0 109 62" fill="none" xmlns="http://www.w3.org/2000/svg">
<path d="M26.3252 7.62891C37.556 7.62892 47.3213 17.5574 47.3213 30.6504C47.3211 43.7432 37.5559 53.6709 26.3252 53.6709C15.0945 53.6709 5.32931 43.7432 5.3291 30.6504C5.3291 17.5573 15.0943 7.62891 26.3252 7.62891Z" stroke="black" stroke-width="10.658"/>
<path d="M96.3936 11.769L100.114 5.41357L105.303 5.41357L101.604 11.769L96.3936 11.769Z" fill="black" stroke="black" stroke-width="3.46785"/>
<path d="M81.4079 5.1746L74.2048 5.17462L65.5672 30.3574L72.5639 30.3572L81.4079 5.1746Z" fill="black" stroke="black" stroke-width="3.46785"/>
<path d="M62.2584 40.8013C62.4113 43.1682 63.1456 45.4609 64.3962 47.4762C65.6468 49.4916 67.3751 51.1674 69.428 52.3552C71.481 53.5431 73.7952 54.2063 76.1657 54.2861C78.5362 54.3659 80.8898 53.8599 83.018 52.8129C85.1462 51.7658 86.9833 50.2101 88.3667 48.2834C89.75 46.3568 90.6369 44.1187 90.9487 41.7675C91.2605 39.4162 90.9876 37.0244 90.1542 34.8038C89.3208 32.5832 87.9526 30.6024 86.1708 29.0369" stroke="black" stroke-width="14.1867"/>
</svg>
